<svg version="1" xmlns="http://www.w3.org/2000/svg" width="536" height="536" viewBox="0 0 402.000000 402.000000"><path d="M178 3.1c-53.3 6.1-100.2 32-133.9 74C6.8 123.3-7.3 184.9 5.5 245c5.8 27.2 20.8 58.1 39.2 81 7.8 9.7 25.6 26.8 35.6 34.3 64.7 48.6 155.3 53.1 224.6 11.1 26.7-16.2 51.8-41.5 68-68.5 33.7-56.5 36.9-129.1 8.1-188.4C350.9 52.4 290.4 10 222.1 3.1c-11.9-1.3-33.2-1.2-44.1 0zm55 8.8C315.7 26.5 378.5 90.6 391.6 174c2.2 14 2.2 40 0 54-5.7 36.2-20.3 68.6-43.1 95.9-41.7 49.8-107.6 75.8-171.2 67.6C97.8 381.2 34 325.1 13.9 248c-3.6-14-5-24.4-5.6-40.6-.9-24.2 1.9-43.4 9.7-66.6C41.8 69.4 103.9 19.4 180 10c11.9-1.4 39.8-.4 53 1.9z"/><path d="M269 133.6c-1.4.2-5.2.9-8.5 1.5-29.3 5-49.5 22.2-56 47.4-2.2 8.4-1.8 25.3.7 34.7 6.8 25.5 24.2 42.4 48.7 47.4 17.2 3.4 44.3.5 60.4-6.5l4.9-2.1-.6-26.8c-.2-14.7-.5-27-.5-27.4-.1-.5-7.9-.7-17.3-.5l-17.3.3-.3 16.7-.2 16.7h-2.5c-9 0-23.7-6.1-29.6-12.2-6.3-6.7-8.3-11.9-8.3-22.3-.1-7.9.2-9.7 2.7-14.5 3.7-7.6 8.6-12.3 16.5-16.2 6.5-3.2 7-3.3 19.2-3.3 12.5 0 18.7 1.2 31.3 6.1 2 .8 4.1 1.4 4.6 1.4.7 0 .8-19.7.2-30.1-.1-1.6-9.9-5.4-21.8-8.4-6.3-1.6-21.9-2.7-26.3-1.9zM124 134.7c-15.1.9-30.6 4.8-38 9.7-11.6 7.7-17.4 19.2-16.3 32.6 1.7 21.9 21.6 36.6 53.5 39.5 18.1 1.7 25.8 5 25.8 11.1 0 5.9-7 11.2-15.4 11.8-8.7.7-14.1-2.6-20.2-12.1-3-4.6-3.8-5.2-6.2-4.8-3 .6-24 3.2-31.7 4-2.7.3-6.2.8-7.7 1.1l-2.7.5 1.5 4.2c2.2 6.4 6 12.2 11 17.2 4.8 4.7 15.2 11.5 17.6 11.5.8 0 1.8.4 2.4.9 4.1 3.7 30.7 5.8 46.6 3.7 21-2.9 38.2-12.7 44.8-25.6 3-5.9 4.9-17.3 3.8-22.5-3.4-15.4-16.2-28.2-32.8-32.9-5.3-1.5-7.4-1.8-22-3.1-16.9-1.6-26-5.4-26-11 0-3.3 3.5-7.2 7.6-8.5 8.2-2.8 18.2 1.3 22.5 9l2.4 4.2 7-.6c6.9-.7 12-1.2 20-2.1 2.2-.2 6.7-.7 10-1.1 3.3-.3 6.4-1 6.9-1.4 1.3-1.3-5.2-12.4-10.3-17.6-10.1-10.3-23.3-16-39.9-17.2-5.3-.4-11.7-.6-14.2-.5z"/></svg>