<?xml version="1.0" encoding="UTF-8" standalone="no"?>
<!DOCTYPE svg PUBLIC "-//W3C//DTD SVG 1.1//EN" "http://www.w3.org/Graphics/SVG/1.1/DTD/svg11.dtd">
<svg xmlns:xl="http://www.w3.org/1999/xlink" version="1.1" xmlns="http://www.w3.org/2000/svg" xmlns:dc="http://purl.org/dc/elements/1.1/" viewBox="-612 949 536 536" width="536" height="536">
  <defs/>
  <g id="Canvas_1" stroke="none" fill-opacity="1" stroke-dasharray="none" fill="none" stroke-opacity="1">
    <title>Canvas 1</title>
    <g id="Canvas_1_Layer_1">
      <title>Layer 1</title>
      <g id="Group_27">
        <title>bde1f744-c4b6-4018-9d2b-51198874bd80</title>
        <g id="Graphic_30">
          <title>bc8d53e4-1ea1-40d5-aab0-3f47c0fae8f2</title>
          <path d="M -564.72105 1038.28 L -76 1038.28 L -76 1485 L -533.30425 1485 C -550.2611 1483.9932 -563.7763 1471.2309 -564.8425 1455.2187 Z" fill="#36697f"/>
        </g>
        <g id="Graphic_29">
          <title>abae35cf-3fdd-4d66-9eb4-33a129fcba98</title>
          <path d="M -517.53513 949 L -136.31212 949 C -120.42074 949 -107.53822 961.1649 -107.53822 976.171 L -107.53822 1321.2027 L -517.53513 1321.2027 L -517.53513 949 Z" fill="#37a5cc"/>
        </g>
        <g id="Graphic_28">
          <title>ffe24929-d2b2-4df2-b75a-f252288e42a4</title>
          <path d="M -612 1371.6567 L -517.52725 1321.2071 L -517.52725 949 L -612 999.4496 Z" fill="#7dc6dd"/>
        </g>
      </g>
      <g id="Group_24">
        <title>f8c313da-8269-4989-a89c-7a8b4e6a021a</title>
        <g id="Graphic_26">
          <path d="M -396.82574 1415.5931 L -377.09227 1415.5931 C -376.6192 1421.9187 -374.46514 1427.793 -362.0233 1427.793 C -352.69903 1427.793 -349.8259 1423.838 -349.8259 1420.1154 L -349.8259 1417.7448 C -349.8259 1412.1027 -353.06014 1410.7358 -364.41706 1407.3481 L -376.02155 1403.7416 C -388.5722 1400.019 -394.0772 1393.6934 -394.0772 1383.8626 L -394.0772 1381.0423 C -394.0772 1370.659 -384.98313 1359.4761 -361.9082 1359.4761 C -343.13506 1359.4761 -330.21228 1367.4888 -329.4995 1383.748 L -348.75675 1383.748 C -348.76094 1380.6123 -350.1907 1377.6293 -352.68273 1375.557 C -355.17476 1373.4846 -358.48913 1372.5225 -361.7836 1372.915 C -370.87766 1372.915 -373.2651 1376.52 -373.2651 1380.0253 L -373.2651 1381.6096 C -373.2651 1385.3323 -370.51655 1387.5867 -360.59147 1390.5247 L -349.2377 1394.0284 C -335.3609 1398.1978 -328.89556 1404.4266 -328.89556 1415.5946 L -328.89556 1418.9822 C -328.89556 1431.9684 -340.85327 1442.1327 -362.02015 1442.1327 C -383.0735 1442.1312 -395.7487 1432.8678 -396.82574 1415.5931 Z" fill="white"/>
        </g>
        <g id="Graphic_25">
          <path d="M -245.0102 1395.2778 L -245.0102 1440.328 L -261.04107 1440.328 L -262.5959 1434.9033 C -268.31486 1439.6305 -275.677 1442.2035 -283.2771 1442.1312 C -291.3206 1442.4667 -299.14516 1439.6053 -304.8515 1434.2418 C -310.5578 1428.8782 -313.62416 1421.5029 -313.3062 1413.906 L -313.3062 1391.2067 C -313.95526 1382.29 -310.34803 1373.5664 -303.47214 1367.4243 C -296.59626 1361.2821 -287.17212 1358.365 -277.77998 1359.4717 C -259.4878 1359.4717 -246.56502 1367.7166 -245.2562 1383.7435 L -264.50554 1383.7435 C -264.6321 1380.7201 -266.11062 1377.8893 -268.57386 1375.9542 C -271.0371 1374.0191 -274.2539 1373.1614 -277.42517 1373.594 C -287.23514 1373.594 -292.37902 1378.5526 -292.37902 1389.1681 L -292.37902 1414.1204 C -292.94404 1417.7138 -291.76076 1421.356 -289.15895 1424.032 C -286.55713 1426.708 -282.81495 1428.1316 -278.97528 1427.9062 C -273.6339 1428.0511 -268.50214 1425.9401 -264.97704 1422.148 L -264.86823 1408.1507 L -278.85228 1408.1507 L -278.85228 1395.2807 Z" fill="white"/>
        </g>
      </g>
      <g id="Group_22">
        <title>b6ddc932-3279-4f2c-9950-9ba14c17fcbc</title>
        <g id="Graphic_23">
          <path d="M -410.4471 1181.6607 L -358.3964 1181.6607 C -357.1349 1198.3383 -351.458 1213.8246 -318.65036 1213.8246 C -294.0411 1213.8246 -286.48138 1203.4011 -286.48138 1193.5733 L -286.48138 1187.3192 C -286.48138 1172.4285 -294.9967 1168.8547 -324.958 1159.9203 L -355.5501 1150.3903 C -388.6747 1140.5625 -403.18857 1123.8849 -403.18857 1097.9752 L -403.18857 1090.5298 C -403.18857 1063.131 -379.21952 1033.6356 -318.33814 1033.6356 C -268.7979 1033.6356 -234.73346 1054.7803 -232.8396 1097.6848 L -283.6319 1097.6848 C -283.6484 1089.4097 -287.42447 1081.5392 -294.0017 1076.0709 C -300.5789 1070.6026 -309.32484 1068.0622 -318.0196 1069.0947 C -341.99653 1069.0947 -348.2963 1078.6247 -348.2963 1087.857 L -348.2963 1092.0263 C -348.2963 1101.8542 -341.0425 1107.8194 -314.8563 1115.5625 L -284.895 1124.7947 C -248.31066 1135.8138 -231.28002 1152.1936 -231.28002 1181.689 L -231.28002 1190.6234 C -231.28002 1224.872 -262.81825 1251.6915 -318.65667 1251.6915 C -374.1734 1251.6632 -407.6055 1227.2425 -410.4471 1181.6607 Z" fill="white"/>
        </g>
      </g>
    </g>
  </g>
</svg>
